<svg xmlns="http://www.w3.org/2000/svg" width="920" height="626" font-family="-apple-system,Segoe UI,Roboto,sans-serif" font-size="13">
<rect width="100%" height="100%" fill="#ffffff"/>
<text x="16" y="24" font-size="15" font-weight="600" fill="#0f172a">Request/response latency, 99th percentile</text>
<text x="16" y="42" font-size="12" fill="#64748b">median of the repeats &#183; lower is better</text>
<text x="16" y="68" font-size="12" font-weight="600" fill="#334155">rr</text>
<text x="142" y="90" text-anchor="end" font-size="12" fill="#475569">zeptun-hybrid</text>
<rect x="150" y="76" width="121" height="16" rx="3" fill="#2563eb"/>
<text x="279" y="90" font-size="12" fill="#0f172a">188 us</text>
<text x="142" y="114" text-anchor="end" font-size="12" fill="#475569">zeptun-userspace</text>
<rect x="150" y="100" width="110" height="16" rx="3" fill="#64748b"/>
<text x="268" y="114" font-size="12" fill="#0f172a">172 us</text>
<text x="142" y="138" text-anchor="end" font-size="12" fill="#475569">hev</text>
<rect x="150" y="124" width="112" height="16" rx="3" fill="#0f766e"/>
<text x="270" y="138" font-size="12" fill="#0f172a">174 us</text>
<text x="142" y="162" text-anchor="end" font-size="12" fill="#475569">singbox-gvisor</text>
<rect x="150" y="148" width="177" height="16" rx="3" fill="#b45309"/>
<text x="335" y="162" font-size="12" fill="#0f172a">276 us</text>
<text x="142" y="186" text-anchor="end" font-size="12" fill="#475569">singbox-system</text>
<rect x="150" y="172" width="133" height="16" rx="3" fill="#7c3aed"/>
<text x="291" y="186" font-size="12" fill="#0f172a">208 us</text>
<text x="142" y="210" text-anchor="end" font-size="12" fill="#475569">tun2socks</text>
<rect x="150" y="196" width="167" height="16" rx="3" fill="#be123c"/>
<text x="325" y="210" font-size="12" fill="#0f172a">260 us</text>
<text x="16" y="250" font-size="12" font-weight="600" fill="#334155">rr-8x1k</text>
<text x="142" y="272" text-anchor="end" font-size="12" fill="#475569">zeptun-hybrid</text>
<rect x="150" y="258" width="412" height="16" rx="3" fill="#2563eb"/>
<text x="570" y="272" font-size="12" fill="#0f172a">640 us</text>
<text x="142" y="296" text-anchor="end" font-size="12" fill="#475569">zeptun-userspace</text>
<rect x="150" y="282" width="314" height="16" rx="3" fill="#64748b"/>
<text x="472" y="296" font-size="12" fill="#0f172a">488 us</text>
<text x="142" y="320" text-anchor="end" font-size="12" fill="#475569">hev</text>
<rect x="150" y="306" width="391" height="16" rx="3" fill="#0f766e"/>
<text x="549" y="320" font-size="12" fill="#0f172a">608 us</text>
<text x="142" y="344" text-anchor="end" font-size="12" fill="#475569">singbox-gvisor</text>
<rect x="150" y="330" width="540" height="16" rx="3" fill="#b45309"/>
<text x="698" y="344" font-size="12" fill="#0f172a">840 us</text>
<text x="142" y="368" text-anchor="end" font-size="12" fill="#475569">singbox-system</text>
<rect x="150" y="354" width="463" height="16" rx="3" fill="#7c3aed"/>
<text x="621" y="368" font-size="12" fill="#0f172a">720 us</text>
<text x="142" y="392" text-anchor="end" font-size="12" fill="#475569">tun2socks</text>
<rect x="150" y="378" width="546" height="16" rx="3" fill="#be123c"/>
<text x="704" y="392" font-size="12" fill="#0f172a">848 us</text>
<text x="16" y="432" font-size="12" font-weight="600" fill="#334155">crr</text>
<text x="142" y="454" text-anchor="end" font-size="12" fill="#475569">zeptun-hybrid</text>
<rect x="150" y="440" width="412" height="16" rx="3" fill="#2563eb"/>
<text x="570" y="454" font-size="12" fill="#0f172a">640 us</text>
<text x="142" y="478" text-anchor="end" font-size="12" fill="#475569">zeptun-userspace</text>
<rect x="150" y="464" width="381" height="16" rx="3" fill="#64748b"/>
<text x="539" y="478" font-size="12" fill="#0f172a">592 us</text>
<text x="142" y="502" text-anchor="end" font-size="12" fill="#475569">hev</text>
<rect x="150" y="488" width="412" height="16" rx="3" fill="#0f766e"/>
<text x="570" y="502" font-size="12" fill="#0f172a">640 us</text>
<text x="142" y="526" text-anchor="end" font-size="12" fill="#475569">singbox-gvisor</text>
<rect x="150" y="512" width="680" height="16" rx="3" fill="#b45309"/>
<text x="838" y="526" font-size="12" fill="#0f172a">1056 us</text>
<text x="142" y="550" text-anchor="end" font-size="12" fill="#475569">singbox-system</text>
<rect x="150" y="536" width="571" height="16" rx="3" fill="#7c3aed"/>
<text x="729" y="550" font-size="12" fill="#0f172a">888 us</text>
<text x="142" y="574" text-anchor="end" font-size="12" fill="#475569">tun2socks</text>
<rect x="150" y="560" width="659" height="16" rx="3" fill="#be123c"/>
<text x="817" y="574" font-size="12" fill="#0f172a">1024 us</text>
</svg>
