<svg xmlns="http://www.w3.org/2000/svg" width="920" height="626" font-family="-apple-system,Segoe UI,Roboto,sans-serif" font-size="13">
<rect width="100%" height="100%" fill="#ffffff"/>
<text x="16" y="24" font-size="15" font-weight="600" fill="#0f172a">Request/response rate</text>
<text x="16" y="42" font-size="12" fill="#64748b">median of the repeats &#183; higher is better</text>
<text x="16" y="68" font-size="12" font-weight="600" fill="#334155">rr</text>
<text x="142" y="90" text-anchor="end" font-size="12" fill="#475569">zeptun-hybrid</text>
<rect x="150" y="76" width="146" height="16" rx="3" fill="#2563eb"/>
<text x="304" y="90" font-size="12" fill="#0f172a">6449 tps</text>
<text x="142" y="114" text-anchor="end" font-size="12" fill="#475569">zeptun-userspace</text>
<rect x="150" y="100" width="161" height="16" rx="3" fill="#64748b"/>
<text x="319" y="114" font-size="12" fill="#0f172a">7118 tps</text>
<text x="142" y="138" text-anchor="end" font-size="12" fill="#475569">hev</text>
<rect x="150" y="124" width="158" height="16" rx="3" fill="#0f766e"/>
<text x="316" y="138" font-size="12" fill="#0f172a">6987 tps</text>
<text x="142" y="162" text-anchor="end" font-size="12" fill="#475569">singbox-gvisor</text>
<rect x="150" y="148" width="100" height="16" rx="3" fill="#b45309"/>
<text x="258" y="162" font-size="12" fill="#0f172a">4409 tps</text>
<text x="142" y="186" text-anchor="end" font-size="12" fill="#475569">singbox-system</text>
<rect x="150" y="172" width="127" height="16" rx="3" fill="#7c3aed"/>
<text x="285" y="186" font-size="12" fill="#0f172a">5615 tps</text>
<text x="142" y="210" text-anchor="end" font-size="12" fill="#475569">tun2socks</text>
<rect x="150" y="196" width="105" height="16" rx="3" fill="#be123c"/>
<text x="263" y="210" font-size="12" fill="#0f172a">4630 tps</text>
<text x="16" y="250" font-size="12" font-weight="600" fill="#334155">rr-8x1k</text>
<text x="142" y="272" text-anchor="end" font-size="12" fill="#475569">zeptun-hybrid</text>
<rect x="150" y="258" width="534" height="16" rx="3" fill="#2563eb"/>
<text x="692" y="272" font-size="12" fill="#0f172a">23481 tps</text>
<text x="142" y="296" text-anchor="end" font-size="12" fill="#475569">zeptun-userspace</text>
<rect x="150" y="282" width="680" height="16" rx="3" fill="#64748b"/>
<text x="838" y="296" font-size="12" fill="#0f172a">29895 tps</text>
<text x="142" y="320" text-anchor="end" font-size="12" fill="#475569">hev</text>
<rect x="150" y="306" width="633" height="16" rx="3" fill="#0f766e"/>
<text x="791" y="320" font-size="12" fill="#0f172a">27843 tps</text>
<text x="142" y="344" text-anchor="end" font-size="12" fill="#475569">singbox-gvisor</text>
<rect x="150" y="330" width="396" height="16" rx="3" fill="#b45309"/>
<text x="554" y="344" font-size="12" fill="#0f172a">17443 tps</text>
<text x="142" y="368" text-anchor="end" font-size="12" fill="#475569">singbox-system</text>
<rect x="150" y="354" width="497" height="16" rx="3" fill="#7c3aed"/>
<text x="655" y="368" font-size="12" fill="#0f172a">21871 tps</text>
<text x="142" y="392" text-anchor="end" font-size="12" fill="#475569">tun2socks</text>
<rect x="150" y="378" width="419" height="16" rx="3" fill="#be123c"/>
<text x="577" y="392" font-size="12" fill="#0f172a">18444 tps</text>
<text x="16" y="432" font-size="12" font-weight="600" fill="#334155">crr</text>
<text x="142" y="454" text-anchor="end" font-size="12" fill="#475569">zeptun-hybrid</text>
<rect x="150" y="440" width="40" height="16" rx="3" fill="#2563eb"/>
<text x="198" y="454" font-size="12" fill="#0f172a">1771 tps</text>
<text x="142" y="478" text-anchor="end" font-size="12" fill="#475569">zeptun-userspace</text>
<rect x="150" y="464" width="45" height="16" rx="3" fill="#64748b"/>
<text x="203" y="478" font-size="12" fill="#0f172a">2013 tps</text>
<text x="142" y="502" text-anchor="end" font-size="12" fill="#475569">hev</text>
<rect x="150" y="488" width="40" height="16" rx="3" fill="#0f766e"/>
<text x="198" y="502" font-size="12" fill="#0f172a">1773 tps</text>
<text x="142" y="526" text-anchor="end" font-size="12" fill="#475569">singbox-gvisor</text>
<rect x="150" y="512" width="26" height="16" rx="3" fill="#b45309"/>
<text x="184" y="526" font-size="12" fill="#0f172a">1153 tps</text>
<text x="142" y="550" text-anchor="end" font-size="12" fill="#475569">singbox-system</text>
<rect x="150" y="536" width="29" height="16" rx="3" fill="#7c3aed"/>
<text x="187" y="550" font-size="12" fill="#0f172a">1286 tps</text>
<text x="142" y="574" text-anchor="end" font-size="12" fill="#475569">tun2socks</text>
<rect x="150" y="560" width="27" height="16" rx="3" fill="#be123c"/>
<text x="185" y="574" font-size="12" fill="#0f172a">1198 tps</text>
</svg>
